<svg data-v-423bf9ae="" xmlns="http://www.w3.org/2000/svg" viewBox="0 0 469.0037759768709 60" class="font"><!----><!----><!----><g data-v-423bf9ae="" id="3749cd07-e6bd-4a3e-ab71-31a7625675bc" fill="black" transform="matrix(5.639098067841383,0,0,5.639098067841383,-6.31578850327702,-16.97368536884251)"><path d="M1.12 13.51L1.12 3.71L2.45 3.71L2.45 13.51L1.12 13.51ZM7.81 6.51L7.81 6.51Q10.61 6.51 10.61 9.73L10.61 9.73L10.61 13.51L9.35 13.51L9.35 9.73L9.35 9.73Q9.35 8.62 8.94 8.13L8.94 8.13L8.94 8.13Q8.53 7.63 7.56 7.63L7.56 7.63L7.56 7.63Q6.94 7.63 6.44 7.85L6.44 7.85L6.44 7.85Q5.94 8.08 5.68 8.53L5.68 8.53L5.68 13.51L4.42 13.51L4.42 6.65L5.40 6.65L5.54 7.38L5.54 7.38Q6.09 6.89 6.64 6.70L6.64 6.70L6.64 6.70Q7.20 6.51 7.81 6.51L7.81 6.51ZM12.73 13.51L12.73 7.63L11.54 7.63L11.70 6.65L12.73 6.65L12.73 5.03L12.73 5.03Q12.73 4.09 13.22 3.55L13.22 3.55L13.22 3.55Q13.72 3.01 14.66 3.01L14.66 3.01L14.66 3.01Q15.27 3.01 15.75 3.19L15.75 3.19L15.55 4.26L15.55 4.26Q15.22 4.13 14.85 4.13L14.85 4.13L14.85 4.13Q13.99 4.13 13.99 5.11L13.99 5.11L13.99 6.65L15.83 6.65L15.83 7.63L13.99 7.63L13.99 13.51L12.73 13.51ZM19.88 13.65L19.88 13.65Q18.83 13.65 18.06 13.18L18.06 13.18L18.06 13.18Q17.29 12.71 16.88 11.90L16.88 11.90L16.88 11.90Q16.48 11.09 16.48 10.08L16.48 10.08L16.48 10.08Q16.48 9.07 16.88 8.26L16.88 8.26L16.88 8.26Q17.29 7.45 18.06 6.98L18.06 6.98L18.06 6.98Q18.83 6.51 19.88 6.51L19.88 6.51L19.88 6.51Q20.92 6.51 21.69 6.98L21.69 6.98L21.69 6.98Q22.47 7.45 22.88 8.26L22.88 8.26L22.88 8.26Q23.28 9.07 23.28 10.08L23.28 10.08L23.28 10.08Q23.28 11.09 22.88 11.90L22.88 11.90L22.88 11.90Q22.47 12.71 21.69 13.18L21.69 13.18L21.69 13.18Q20.92 13.65 19.88 13.65L19.88 13.65ZM19.88 12.53L19.88 12.53Q20.89 12.53 21.44 11.89L21.44 11.89L21.44 11.89Q21.99 11.24 21.99 10.08L21.99 10.08L21.99 10.08Q21.99 8.92 21.44 8.27L21.44 8.27L21.44 8.27Q20.89 7.63 19.88 7.63L19.88 7.63L19.88 7.63Q18.87 7.63 18.32 8.27L18.32 8.27L18.32 8.27Q17.77 8.92 17.77 10.08L17.77 10.08L17.77 10.08Q17.77 11.24 18.32 11.89L18.32 11.89L18.32 11.89Q18.87 12.53 19.88 12.53L19.88 12.53ZM26.95 13.65L26.95 13.65Q26.04 13.65 25.60 13.17L25.60 13.17L25.60 13.17Q25.16 12.70 25.16 12.01L25.16 12.01L25.16 7.63L23.98 7.63L24.09 6.65L25.16 6.65L25.16 4.96L26.42 4.83L26.42 6.65L28.22 6.65L28.22 7.63L26.42 7.63L26.42 11.24L26.42 11.24Q26.42 11.96 26.50 12.22L26.50 12.22L26.50 12.22Q26.59 12.49 26.86 12.56L26.86 12.56L26.86 12.56Q27.13 12.64 27.86 12.64L27.86 12.64L28.18 12.64L28.08 13.65L26.95 13.65ZM32.59 13.65L32.59 13.65Q31.42 13.65 30.58 13.17L30.58 13.17L30.58 13.17Q29.75 12.68 29.32 11.86L29.32 11.86L29.32 11.86Q28.88 11.03 28.88 10.02L28.88 10.02L28.88 10.02Q28.88 9.06 29.28 8.25L29.28 8.25L29.28 8.25Q29.68 7.45 30.44 6.98L30.44 6.98L30.44 6.98Q31.21 6.51 32.24 6.51L32.24 6.51L32.24 6.51Q33.56 6.51 34.38 7.28L34.38 7.28L34.38 7.28Q35.20 8.05 35.20 9.41L35.20 9.41L35.20 9.41Q35.20 9.76 35.14 10.08L35.14 10.08L30.17 10.08L30.17 10.08Q30.30 11.41 30.98 11.97L30.98 11.97L30.98 11.97Q31.67 12.53 32.75 12.53L32.75 12.53L32.75 12.53Q33.82 12.53 34.72 12.12L34.72 12.12L34.89 13.12L34.89 13.12Q33.70 13.65 32.59 13.65L32.59 13.65ZM30.28 9.21L33.89 9.21L33.89 9.21Q33.89 8.47 33.47 8.05L33.47 8.05L33.47 8.05Q33.05 7.63 32.21 7.63L32.21 7.63L32.21 7.63Q31.40 7.63 30.94 8.03L30.94 8.03L30.94 8.03Q30.48 8.43 30.28 9.21L30.28 9.21ZM39.62 13.65L39.62 13.65Q38.50 13.65 37.70 13.19L37.70 13.19L37.70 13.19Q36.89 12.73 36.48 11.92L36.48 11.92L36.48 11.92Q36.08 11.12 36.08 10.12L36.08 10.12L36.08 10.12Q36.08 8.50 36.99 7.50L36.99 7.50L36.99 7.50Q37.91 6.51 39.72 6.51L39.72 6.51L39.72 6.51Q40.78 6.51 41.59 6.92L41.59 6.92L41.40 8.02L41.40 8.02Q40.54 7.63 39.69 7.63L39.69 7.63L39.69 7.63Q38.57 7.63 37.97 8.27L37.97 8.27L37.97 8.27Q37.37 8.90 37.37 10.07L37.37 10.07L37.37 10.07Q37.37 11.23 37.95 11.89L37.95 11.89L37.95 11.89Q38.53 12.54 39.66 12.54L39.66 12.54L39.66 12.54Q40.57 12.54 41.41 12.12L41.41 12.12L41.58 13.13L41.58 13.13Q41.27 13.34 40.73 13.50L40.73 13.50L40.73 13.50Q40.19 13.65 39.62 13.65L39.62 13.65ZM46.10 6.51L46.10 6.51Q47.40 6.51 48.09 7.36L48.09 7.36L48.09 7.36Q48.78 8.22 48.78 9.69L48.78 9.69L48.78 13.51L47.52 13.51L47.52 9.84L47.52 9.84Q47.52 8.71 47.10 8.17L47.10 8.17L47.10 8.17Q46.69 7.63 45.82 7.63L45.82 7.63L45.82 7.63Q45.29 7.63 44.84 7.88L44.84 7.88L44.84 7.88Q44.39 8.12 44.09 8.57L44.09 8.57L44.09 13.51L42.81 13.51L42.81 3.01L44.09 3.01L44.09 7.31L44.09 7.31Q44.49 6.92 44.98 6.71L44.98 6.71L44.98 6.71Q45.46 6.51 46.10 6.51L46.10 6.51ZM55.78 13.51L55.78 4.91L52.92 4.91L52.92 3.71L59.96 3.71L59.96 4.91L57.11 4.91L57.11 13.51L55.78 13.51ZM64.02 13.65L64.02 13.65Q62.97 13.65 62.20 13.18L62.20 13.18L62.20 13.18Q61.43 12.71 61.03 11.90L61.03 11.90L61.03 11.90Q60.62 11.09 60.62 10.08L60.62 10.08L60.62 10.08Q60.62 9.07 61.03 8.26L61.03 8.26L61.03 8.26Q61.43 7.45 62.20 6.98L62.20 6.98L62.20 6.98Q62.97 6.51 64.02 6.51L64.02 6.51L64.02 6.51Q65.06 6.51 65.83 6.98L65.83 6.98L65.83 6.98Q66.61 7.45 67.02 8.26L67.02 8.26L67.02 8.26Q67.42 9.07 67.42 10.08L67.42 10.08L67.42 10.08Q67.42 11.09 67.02 11.90L67.02 11.90L67.02 11.90Q66.61 12.71 65.83 13.18L65.83 13.18L65.83 13.18Q65.06 13.65 64.02 13.65L64.02 13.65ZM64.02 12.53L64.02 12.53Q65.03 12.53 65.58 11.89L65.58 11.89L65.58 11.89Q66.14 11.24 66.14 10.08L66.14 10.08L66.14 10.08Q66.14 8.92 65.58 8.27L65.58 8.27L65.58 8.27Q65.03 7.63 64.02 7.63L64.02 7.63L64.02 7.63Q63.01 7.63 62.46 8.27L62.46 8.27L62.46 8.27Q61.91 8.92 61.91 10.08L61.91 10.08L61.91 10.08Q61.91 11.24 62.46 11.89L62.46 11.89L62.46 11.89Q63.01 12.53 64.02 12.53L64.02 12.53ZM71.72 13.65L71.72 13.65Q70.67 13.65 69.90 13.18L69.90 13.18L69.90 13.18Q69.13 12.71 68.73 11.90L68.73 11.90L68.73 11.90Q68.32 11.09 68.32 10.08L68.32 10.08L68.32 10.08Q68.32 9.07 68.73 8.26L68.73 8.26L68.73 8.26Q69.13 7.45 69.90 6.98L69.90 6.98L69.90 6.98Q70.67 6.51 71.72 6.51L71.72 6.51L71.72 6.51Q72.76 6.51 73.53 6.98L73.53 6.98L73.53 6.98Q74.31 7.45 74.72 8.26L74.72 8.26L74.72 8.26Q75.12 9.07 75.12 10.08L75.12 10.08L75.12 10.08Q75.12 11.09 74.72 11.90L74.72 11.90L74.72 11.90Q74.31 12.71 73.53 13.18L73.53 13.18L73.53 13.18Q72.76 13.65 71.72 13.65L71.72 13.65ZM71.72 12.53L71.72 12.53Q72.73 12.53 73.28 11.89L73.28 11.89L73.28 11.89Q73.84 11.24 73.84 10.08L73.84 10.08L73.84 10.08Q73.84 8.92 73.28 8.27L73.28 8.27L73.28 8.27Q72.73 7.63 71.72 7.63L71.72 7.63L71.72 7.63Q70.71 7.63 70.16 8.27L70.16 8.27L70.16 8.27Q69.61 8.92 69.61 10.08L69.61 10.08L69.61 10.08Q69.61 11.24 70.16 11.89L70.16 11.89L70.16 11.89Q70.71 12.53 71.72 12.53L71.72 12.53ZM78.19 13.65L78.19 13.65Q77.27 13.65 76.84 13.17L76.84 13.17L76.84 13.17Q76.41 12.70 76.41 12.00L76.41 12.00L76.41 3.01L77.67 3.01L77.67 11.27L77.67 11.27Q77.67 11.89 77.75 12.17L77.75 12.17L77.75 12.17Q77.83 12.45 78.05 12.54L78.05 12.54L78.05 12.54Q78.27 12.64 78.78 12.64L78.78 12.64L78.60 13.65L78.19 13.65ZM81.68 13.65L81.68 13.65Q80.86 13.65 80.26 13.46L80.26 13.46L80.26 13.46Q79.65 13.27 79.32 13.05L79.32 13.05L79.48 11.83L79.48 11.83Q79.76 12.08 80.34 12.31L80.34 12.31L80.34 12.31Q80.92 12.53 81.62 12.53L81.62 12.53L81.62 12.53Q82.28 12.53 82.64 12.31L82.64 12.31L82.64 12.31Q82.99 12.08 82.99 11.68L82.99 11.68L82.99 11.68Q82.99 11.20 82.60 10.96L82.60 10.96L82.60 10.96Q82.21 10.71 81.62 10.54L81.62 10.54L81.62 10.54Q80.98 10.37 80.54 10.18L80.54 10.18L80.54 10.18Q80.09 10.00 79.78 9.60L79.78 9.60L79.78 9.60Q79.46 9.21 79.46 8.57L79.46 8.57L79.46 8.57Q79.46 7.69 80.09 7.10L80.09 7.10L80.09 7.10Q80.72 6.51 82.04 6.51L82.04 6.51L82.04 6.51Q82.64 6.51 83.06 6.63L83.06 6.63L83.06 6.63Q83.48 6.75 83.90 6.96L83.90 6.96L83.75 8.11L83.75 8.11Q83.41 7.83 83.01 7.67L83.01 7.67L83.01 7.67Q82.60 7.50 82.07 7.50L82.07 7.50L82.07 7.50Q81.45 7.50 81.09 7.73L81.09 7.73L81.09 7.73Q80.74 7.97 80.74 8.43L80.74 8.43L80.74 8.43Q80.74 8.74 80.91 8.93L80.91 8.93L80.91 8.93Q81.07 9.11 81.38 9.24L81.38 9.24L81.38 9.24Q81.69 9.37 82.33 9.56L82.33 9.56L82.33 9.56Q83.13 9.80 83.71 10.23L83.71 10.23L83.71 10.23Q84.29 10.67 84.29 11.61L84.29 11.61L84.29 11.61Q84.29 12.45 83.70 13.05L83.70 13.05L83.70 13.05Q83.10 13.65 81.68 13.65L81.68 13.65Z"></path></g><!----><!----></svg>